<svg width="64" height="64" viewBox="0 0 64 64" fill="none" xmlns="http://www.w3.org/2000/svg">
<path d="M64 32C64 49.6731 49.6731 64 32 64C14.3269 64 0 49.6731 0 32C0 14.3269 14.3269 0 32 0C49.6731 0 64 14.3269 64 32Z" fill="#41522E" fill-opacity="0.05"/>
<path d="M29.9359 16.3205C29.1648 17.046 26.0586 19.9656 23.0371 22.8068C20.0129 25.645 17.1172 28.3702 16.5977 28.8577C16.0781 29.3453 15.3398 30.0389 14.957 30.3958C14.5742 30.7557 14.2023 31.1069 14.1313 31.1794L14 31.31L14.9023 32.3838C15.3973 32.9729 15.8211 33.4547 15.8402 33.4547C15.8621 33.4518 17.4891 31.9427 19.4578 30.0998C29.7883 20.4299 31.4562 18.8744 31.4754 18.8802C31.4863 18.886 32.7605 20.0787 34.3082 21.5327C35.8531 22.9867 39.3449 26.2661 42.0629 28.8229C44.7809 31.3797 47.0176 33.4721 47.0312 33.4721C47.0449 33.4721 47.0641 33.4576 47.0723 33.4431C47.0859 33.4199 47.1023 33.4228 47.1297 33.446C47.1816 33.4895 47.1023 33.5766 48.0566 32.4273C48.475 31.9253 48.8578 31.4667 48.9098 31.4087L49.0027 31.3042L46.7113 29.1595C45.4508 27.9784 42.4894 25.2039 40.1269 22.9954C37.7672 20.784 34.8797 18.0821 33.7094 16.988L31.5875 15H31.3414L29.9359 16.3205Z" fill="#41522E"/>
<path d="M29.6051 22.9925C28.6098 23.927 25.859 26.5129 23.4937 28.7359L19.1953 32.7786L19.209 49.4486L19.2691 49.5676C19.302 49.6343 19.3813 49.7359 19.4441 49.791C19.6711 50 19.3785 49.9855 23.7125 49.9855H27.6172L27.6227 46.291C27.6309 42.6169 27.6309 42.5995 27.6883 42.4689C27.7594 42.3006 27.8961 42.1555 28.0547 42.08C28.1777 42.0191 28.1969 42.0191 31.4016 42.0104C34.9672 42.0017 34.8141 41.9959 35.0164 42.1845C35.1586 42.318 35.2379 42.466 35.2707 42.6575C35.2926 42.7736 35.3008 43.9751 35.3008 46.4071V49.9855L43.4191 49.971L43.5012 49.8868C43.5477 49.8404 43.6242 49.704 43.6734 49.5821L43.7637 49.3615L43.7746 32.7612L37.6496 27.0294C34.177 23.779 31.5 21.2948 31.4699 21.2948C31.4344 21.2919 30.7945 21.8752 29.6051 22.9925Z" fill="#41522E"/>
</svg>
